<?xml version="1.0" encoding="UTF-8" standalone="no"?>
<!DOCTYPE svg PUBLIC "-//W3C//DTD SVG 1.1//EN" "http://www.w3.org/Graphics/SVG/1.1/DTD/svg11.dtd">
<svg width="100%" height="100%" viewBox="0 0 305 83" version="1.1" xmlns="http://www.w3.org/2000/svg" xmlns:xlink="http://www.w3.org/1999/xlink" xml:space="preserve" xmlns:serif="http://www.serif.com/" style="fill-rule:evenodd;clip-rule:evenodd;stroke-linejoin:round;stroke-miterlimit:2;">
    <g transform="matrix(1,0,0,1,-240.54,-186.571)">
        <g transform="matrix(1,0,0,1,85.7633,49.2322)">
            <g transform="matrix(-1,0,0,1,462.102,-1410.53)">
                <rect x="226.228" y="1549.23" width="9.646" height="65.066" style="fill:white;"/>
            </g>
        </g>
        <g transform="matrix(1,0,0,1,85.7633,49.2322)">
            <g transform="matrix(1,0,0,1,267.632,170.191)">
                <path d="M0,36.491C-2.639,43.68 -5.643,49.414 -14.561,49.414C-17.291,49.414 -19.565,48.959 -21.386,48.504L-21.386,41.223L-20.566,41.223C-16.562,41.77 -13.559,41.497 -11.467,38.948C-9.737,36.855 -8.463,33.216 -10.192,28.847L-27.027,-12.923L-16.744,-12.923L-3.73,22.659L-3.549,22.659L8.373,-12.923L18.564,-12.923L0,36.491Z" style="fill:white;fill-rule:nonzero;"/>
            </g>
        </g>
        <g transform="matrix(1,0,0,1,85.7633,49.2322)">
            <g transform="matrix(1,0,0,1,356.359,188.117)">
                <path d="M0,-16.47L0,15.653L-9.646,15.653L-9.646,-13.741C-9.646,-20.02 -10.92,-24.024 -17.473,-24.024C-23.934,-24.024 -27.937,-19.565 -27.937,-12.649L-27.937,15.653L-37.584,15.653L-37.584,-13.741C-37.584,-20.02 -38.857,-24.024 -45.502,-24.024C-51.871,-24.024 -55.967,-19.565 -55.967,-12.649L-55.967,15.653L-65.521,15.653L-65.521,-30.849L-55.967,-30.849L-55.967,-24.843L-55.785,-24.843C-53.328,-28.484 -48.959,-32.123 -41.953,-32.123C-35.4,-32.123 -31.486,-29.12 -29.576,-24.115L-29.395,-24.115C-25.936,-28.574 -21.385,-32.123 -14.195,-32.123C-4.822,-32.123 0,-26.482 0,-16.47" style="fill:white;fill-rule:nonzero;"/>
            </g>
        </g>
        <g transform="matrix(1,0,0,1,85.7633,49.2322)">
            <g transform="matrix(1,0,0,1,400.31,195.034)">
                <path d="M0,-14.469C0,-23.57 -4.459,-31.214 -12.832,-31.214C-20.568,-31.214 -25.391,-24.844 -25.391,-14.469C-25.391,-4.186 -20.568,2.275 -12.832,2.275C-4.459,2.275 0,-5.369 0,-14.469M9.646,-14.469C9.646,0.819 0.818,10.101 -11.012,10.101C-18.293,10.101 -22.842,6.643 -25.299,3.185L-25.482,3.185L-25.482,24.571L-35.129,24.571L-35.129,-37.766L-25.482,-37.766L-25.482,-32.306L-25.299,-32.306C-22.842,-35.582 -18.293,-39.04 -11.012,-39.04C0.818,-39.04 9.646,-29.758 9.646,-14.469" style="fill:white;fill-rule:nonzero;"/>
            </g>
        </g>
        <g transform="matrix(1,0,0,1,85.7633,49.2322)">
            <g transform="matrix(1,0,0,1,423.968,185.205)">
                <path d="M0,-9.282L26.117,-9.282C26.117,-16.47 21.021,-21.658 13.285,-21.658C5.551,-21.658 0,-16.47 0,-9.282M25.389,4.368L34.945,4.368C32.578,13.196 25.662,19.93 13.74,19.93C-0.729,19.93 -9.557,9.92 -9.557,-4.64C-9.557,-19.748 -0.729,-29.212 13.285,-29.212C28.301,-29.212 35.672,-18.746 35.672,-2.183L0,-2.183C0,5.643 5.004,12.104 13.469,12.104C21.385,12.104 24.57,7.19 25.389,4.368" style="fill:white;fill-rule:nonzero;"/>
            </g>
        </g>
        <g transform="matrix(1,0,0,1,85.7633,49.2322)">
            <g transform="matrix(1,0,0,1,186.462,205.135)">
                <path d="M0,-67.797C-18.037,-67.797 -29.859,-55.763 -31.686,-38.662L-20.916,-38.662C-19.536,-49.683 -13.098,-58.515 0,-58.515C14.925,-58.515 21.113,-47.049 21.113,-33.943C21.113,-20.748 14.925,-9.282 0,-9.282C-12.083,-9.282 -18.497,-16.798 -20.502,-26.662L-31.337,-26.662C-28.65,-10.915 -17.124,0 0,0C19.566,0 31.942,-14.379 31.942,-33.943C31.942,-53.51 19.566,-67.797 0,-67.797" style="fill:white;fill-rule:nonzero;"/>
            </g>
        </g>
    </g>
</svg>
